<?xml version="1.0" standalone="no"?>
<!DOCTYPE svg PUBLIC "-//W3C//DTD SVG 20010904//EN"
 "http://www.w3.org/TR/2001/REC-SVG-20010904/DTD/svg10.dtd">
<svg version="1.0" xmlns="http://www.w3.org/2000/svg"
 width="255.000000pt" height="255.000000pt" viewBox="0 0 255.000000 255.000000"
 preserveAspectRatio="xMidYMid meet">
<metadata>
Created by potrace 1.14, written by Peter Selinger 2001-2017
</metadata>
<g transform="translate(0.000000,255.000000) scale(0.100000,-0.100000)"
fill="#000000" stroke="none">
<path d="M1000 2414 c-164 -31 -329 -102 -457 -198 -76 -57 -208 -195 -255
-267 -134 -203 -199 -442 -184 -677 l7 -102 -37 -32 c-43 -38 -64 -82 -64
-133 0 -47 14 -71 50 -90 l29 -15 -25 -37 c-34 -50 -40 -81 -21 -100 16 -16
26 -15 113 12 16 5 23 2 26 -12 3 -10 9 -25 12 -33 5 -12 -4 -21 -34 -34 -43
-19 -70 -58 -70 -101 0 -44 18 -63 80 -86 34 -12 63 -26 67 -31 3 -6 7 -31 9
-57 8 -97 39 -128 122 -118 46 5 52 3 78 -25 45 -47 125 -95 211 -125 75 -27
85 -28 273 -28 220 1 308 15 521 84 l116 38 19 -35 c27 -49 65 -74 121 -79 86
-7 151 45 160 130 5 40 2 49 -21 70 l-26 25 102 60 c272 158 425 299 509 467
32 65 41 95 46 155 3 41 1 92 -5 113 -9 34 -7 44 20 95 24 47 29 64 23 97 -3
22 -10 44 -16 50 -14 14 -11 35 5 35 23 0 39 28 31 57 -3 16 -29 49 -56 76
-41 40 -49 53 -49 85 0 48 -40 132 -75 160 -38 30 -93 45 -152 41 l-51 -4 -22
47 c-30 64 -138 196 -213 261 -146 127 -281 198 -472 247 -110 29 -327 36
-445 14z m441 -57 c200 -52 347 -134 484 -272 44 -44 103 -113 130 -154 47
-68 50 -77 50 -135 0 -55 -4 -69 -37 -118 -116 -175 -362 -372 -623 -498 -389
-189 -788 -245 -1102 -154 -111 32 -141 50 -165 96 -27 52 -40 199 -27 321 49
479 413 861 895 937 99 15 287 4 395 -23z m872 -574 c34 -17 80 -109 75 -149
-5 -43 -44 -62 -199 -97 -81 -18 -159 -41 -173 -51 -27 -17 -27 -18 -20 -100
8 -100 -4 -144 -49 -182 -31 -26 -34 -26 -122 -19 -132 11 -154 10 -172 -8
-15 -15 -16 -26 -5 -99 19 -130 -10 -202 -93 -233 -55 -21 -85 -16 -222 36
-67 25 -120 39 -150 39 -44 0 -50 -3 -109 -65 -72 -75 -111 -95 -184 -95 -68
0 -110 19 -174 80 -77 72 -96 70 -194 -23 -84 -80 -131 -103 -188 -93 -50 10
-57 31 -34 112 18 63 18 70 4 92 -16 24 -19 24 -103 18 -100 -8 -138 2 -147
38 -11 44 60 168 74 127 11 -32 76 -90 124 -111 127 -55 389 -83 574 -61 419
49 902 284 1159 565 106 116 153 185 168 245 10 45 15 50 42 54 41 4 84 -3
118 -20z m131 -244 c27 -21 51 -57 43 -65 -2 -3 -45 -11 -94 -19 -90 -15 -234
-60 -305 -96 l-36 -19 -11 51 c-6 27 -11 51 -11 53 0 9 65 28 171 50 64 13
134 33 155 45 49 26 56 26 88 0z m3 -151 c16 -15 23 -33 23 -61 0 -60 -30 -99
-109 -141 -78 -41 -81 -46 -81 -159 l0 -78 -32 -13 c-18 -7 -72 -16 -119 -19
-136 -9 -167 -27 -266 -150 -66 -82 -103 -107 -160 -107 l-43 0 0 58 c0 125
-4 119 143 195 137 70 304 171 406 246 65 47 122 123 141 186 6 22 13 46 15
53 7 20 57 14 82 -10z m-252 -118 c-37 -39 -146 -110 -168 -110 -47 0 4 52
101 103 84 45 106 47 67 7z m-444 -128 c13 -6 10 -14 -17 -49 l-32 -42 -11 44
c-6 24 -11 46 -11 49 0 8 51 6 71 -2z m674 -20 c10 -48 -12 -149 -50 -228 -77
-160 -303 -348 -595 -494 -90 -45 -109 -51 -143 -46 -43 7 -67 -5 -67 -34 0
-14 -27 -27 -123 -58 -336 -110 -654 -121 -844 -31 -34 16 -79 46 -100 65
l-37 35 39 18 c22 10 64 32 93 50 29 17 59 31 67 31 7 0 23 -16 35 -35 38 -62
112 -83 170 -48 15 9 41 36 56 61 55 87 86 89 238 20 79 -36 94 -40 145 -35
62 5 124 32 155 66 25 28 30 27 80 -14 53 -43 113 -48 147 -14 22 22 22 47 3
147 -6 30 -5 32 22 32 51 1 108 35 159 96 81 97 119 135 145 146 13 5 70 13
127 18 152 13 183 43 183 175 0 63 1 66 33 85 43 27 54 25 62 -8z m-2162 -241
c-3 -13 -31 -28 -90 -50 -47 -17 -87 -30 -89 -28 -2 2 8 20 21 40 27 39 63 55
127 56 31 1 35 -2 31 -18z m1059 -47 c111 -45 207 -56 259 -30 18 9 33 16 34
16 1 0 2 -39 2 -87 1 -67 7 -107 27 -165 14 -43 23 -84 20 -93 -11 -28 -60
-17 -109 25 -25 22 -52 40 -60 40 -7 0 -35 -18 -61 -40 -71 -59 -142 -74 -207
-46 -39 17 -92 72 -180 188 l-65 86 29 12 c16 7 50 36 75 64 80 89 86 89 236
30z m-1059 -218 c48 -57 144 -106 223 -113 68 -6 241 21 414 66 l115 29 27
-31 c15 -18 28 -34 28 -37 0 -3 -18 -4 -39 -2 -52 5 -106 -22 -132 -67 -60
-99 -96 -106 -159 -31 -55 65 -76 65 -189 1 -86 -49 -142 -74 -193 -85 -43
-10 -68 22 -68 85 0 70 -11 85 -81 110 -66 24 -86 47 -69 79 29 53 76 52 123
-4z m1560 -320 c21 -31 -22 -102 -73 -117 -50 -15 -102 9 -125 57 -26 56 -18
69 40 66 28 -1 64 2 80 7 33 10 66 5 78 -13z"/>
</g>
</svg>
